<svg width="331" height="47" viewBox="0 0 331 47" fill="none" xmlns="http://www.w3.org/2000/svg">
<path d="M167.789 39.956C166.874 39.8691 166.697 39.8259 166.566 39.6567C166.456 39.5151 166.453 39.4385 166.521 38.4046C166.56 37.7988 166.576 37.2627 166.556 37.2133C166.536 37.164 166.395 37.1041 166.244 37.0806C165.78 37.0089 164.151 36.4748 163.507 36.1841C163.174 36.0331 162.659 35.7707 162.363 35.601C162.067 35.4314 161.805 35.2925 161.78 35.2925C161.755 35.2925 161.366 35.688 160.916 36.1715C159.892 37.2716 159.935 37.2621 159.042 36.585C158.296 36.02 157.175 34.9608 156.584 34.2618C156.055 33.6376 155.989 33.5168 156.068 33.3238C156.1 33.2442 156.538 32.833 157.04 32.4103C157.907 31.6812 157.949 31.6351 157.866 31.5119C157.075 30.3465 156.287 28.5742 156.032 27.3891L155.955 27.0334L155.658 27.0685C155.494 27.0883 154.914 27.1215 154.37 27.1437C153.204 27.1908 153.199 27.1889 153.076 26.5555C152.975 26.0371 152.975 22.9655 153.076 22.4471C153.199 21.8133 153.204 21.8112 154.37 21.8579C154.914 21.8798 155.494 21.9137 155.658 21.9331L155.955 21.969L156.032 21.6133C156.287 20.4282 157.075 18.6559 157.866 17.4905C157.949 17.3675 157.907 17.3211 157.04 16.5921C156.538 16.1694 156.1 15.7582 156.068 15.6785C155.989 15.4858 156.055 15.3652 156.583 14.7405C157.152 14.0673 158.343 12.9408 159.066 12.3914C159.923 11.7412 159.896 11.7348 160.916 12.8309C161.366 13.3143 161.759 13.7099 161.789 13.7099C161.819 13.7099 161.995 13.618 162.18 13.5057C163.145 12.9209 164.688 12.3029 165.932 12.0039C166.334 11.9072 166.668 11.8218 166.674 11.8143C166.681 11.8064 166.643 11.2876 166.59 10.6609C166.479 9.3531 166.495 9.26474 166.875 9.16856C167.946 8.89758 171.608 8.96956 171.958 9.26857C172.1 9.3892 172.101 9.63509 171.968 11.1336C171.902 11.8782 171.834 12.3337 171.775 12.4218C171.653 12.6033 171.292 12.6086 171.106 12.4317C170.991 12.323 170.977 12.2566 171.009 11.9619C171.149 10.6447 171.183 9.99487 171.114 9.92959C171.016 9.83649 167.569 9.83211 167.471 9.9256C167.423 9.97116 167.432 10.2913 167.499 11.0169C167.552 11.5816 167.596 12.102 167.596 12.1733C167.598 12.4394 167.407 12.5482 166.706 12.6815C165.324 12.9443 163.745 13.5518 162.485 14.3055C161.889 14.6618 161.793 14.7024 161.581 14.688C161.523 14.684 161.137 14.3193 160.723 13.8775C160.31 13.4357 159.935 13.0358 159.89 12.9888C159.821 12.9167 159.738 12.9579 159.357 13.2533C158.831 13.6616 157.317 15.1342 157.19 15.3603C157.093 15.5346 156.963 15.3965 158.315 16.5537C158.826 16.9901 158.97 17.1486 158.97 17.271C158.97 17.3598 158.807 17.6681 158.595 17.9793C157.841 19.0855 157.269 20.3401 156.962 21.5617C156.699 22.6046 156.674 22.6772 156.539 22.7457C156.449 22.7915 156.058 22.7893 155.196 22.7398C154.528 22.7006 153.968 22.6807 153.953 22.6958C153.86 22.7833 153.796 24.5825 153.857 25.3926C153.894 25.882 153.937 26.2947 153.953 26.3098C153.968 26.3256 154.528 26.3058 155.196 26.2658C156.058 26.2153 156.449 26.2135 156.539 26.2598C156.673 26.3284 156.699 26.4008 156.962 27.4438C157.269 28.6654 157.841 29.92 158.595 31.0262C158.807 31.3374 158.97 31.6458 158.97 31.7345C158.97 31.8567 158.826 32.0154 158.315 32.4519C156.965 33.6067 157.093 33.4717 157.189 33.6415C157.318 33.8697 158.836 35.3474 159.358 35.7525C159.809 36.1024 159.818 36.1064 159.921 35.9861C160.405 35.4186 161.456 34.3618 161.58 34.3171C161.696 34.2751 161.784 34.2899 161.934 34.3771C163.161 35.0901 163.589 35.3158 164.176 35.5595C164.894 35.8577 166.002 36.1893 166.852 36.3605C167.529 36.4964 167.522 36.4797 167.432 37.9096C167.394 38.5221 167.373 39.0358 167.387 39.0514C167.518 39.2019 171.041 39.2005 171.2 39.0504C171.216 39.0345 171.199 38.5289 171.161 37.9256C171.124 37.3223 171.111 36.7599 171.133 36.6758C171.189 36.466 171.478 36.3541 171.708 36.4536C171.943 36.555 171.979 36.7365 172.066 38.249C172.143 39.5848 172.126 39.7377 171.894 39.8061C171.355 39.9654 168.843 40.0588 167.789 39.9585L167.789 39.956ZM178.716 35.5597C178.018 35.2724 177.734 34.4692 178.11 33.8448C178.297 33.5344 178.394 33.7297 177.347 32.3027L176.649 31.3519H174.241C171.929 31.3519 171.83 31.3479 171.72 31.2329C171.658 31.1673 171.607 31.0437 171.607 30.958C171.607 30.8725 171.658 30.7488 171.72 30.6832C171.83 30.5683 171.93 30.5642 174.475 30.5642H177.116L177.341 30.8521C177.465 31.0104 177.904 31.6036 178.318 32.1702L179.07 33.2002L179.372 33.2412C179.937 33.3179 180.368 33.7196 180.473 34.2691C180.641 35.1412 179.585 35.9175 178.716 35.5601V35.5597ZM179.511 34.6728C179.771 34.3201 179.441 33.9593 179.003 34.1186C178.766 34.2049 178.761 34.6121 178.997 34.7611C179.143 34.8532 179.412 34.8069 179.511 34.673L179.511 34.6728ZM167.208 34.9995C166.452 34.8121 165.736 34.2945 165.418 33.7039C165.322 33.5254 165.251 33.4725 165.073 33.4463C164.95 33.4284 164.741 33.3971 164.61 33.3781C164.257 33.3262 163.635 33.0276 163.303 32.7496C162.746 32.2851 162.383 31.5754 162.344 30.8768L162.323 30.4973L161.877 30.3499C161.006 30.0622 160.146 29.3423 159.767 28.5833C159.138 27.3235 159.356 25.8199 160.317 24.7843L160.579 24.5015L160.317 24.2188C159.356 23.1832 159.138 21.6796 159.767 20.4198C160.146 19.6608 161.006 18.9409 161.877 18.6532L162.323 18.506L162.344 18.1265C162.38 17.4793 162.715 16.7804 163.2 16.3364C163.677 15.9005 164.195 15.6837 165.057 15.5585C165.259 15.5292 165.318 15.4838 165.432 15.2734C165.633 14.8992 166.17 14.4248 166.641 14.2045C167.802 13.6625 169.043 13.8611 169.966 14.7366C170.434 15.1801 170.678 15.6044 170.786 16.1618C170.832 16.3973 170.856 17.8257 170.856 20.2994V24.0773H175.708C180.438 24.0773 180.561 24.0733 180.599 23.9608C180.664 23.7669 181.119 23.4214 181.407 23.3479C181.98 23.2017 182.605 23.4643 182.874 23.9655C183.078 24.3453 183.029 24.8994 182.764 25.2119C182.189 25.89 181.144 25.8797 180.704 25.1915L180.537 24.9299L175.699 24.9285L170.861 24.9271L170.843 28.9132L170.824 32.8993L170.671 33.263C170.271 34.2129 169.454 34.8728 168.464 35.0458C167.959 35.134 167.711 35.1251 167.209 35.0009L167.208 34.9995ZM168.756 34.0959C169.174 33.9206 169.545 33.5789 169.752 33.1804L169.929 32.8372L169.947 28.8814L169.965 24.9257H165.691H161.417L161.087 25.2384C160.682 25.623 160.402 26.154 160.308 26.7141C160.086 28.0478 161.117 29.4016 162.549 29.6555C162.952 29.7268 163.337 29.687 163.795 29.5265L164.114 29.4144L164.116 29.0517C164.118 28.7484 164.15 28.6465 164.311 28.4296C164.607 28.03 164.917 27.8874 165.438 27.911C165.912 27.9326 166.079 28.0168 166.407 28.4014C166.559 28.5798 166.604 28.6993 166.626 28.9852C166.663 29.4691 166.477 29.8431 166.081 30.0812C165.687 30.3179 165.393 30.3538 164.966 30.2169C164.618 30.1058 164.614 30.1058 164.301 30.2377C164.128 30.3106 163.803 30.406 163.58 30.4493L163.173 30.5282L163.215 30.8638C163.269 31.3006 163.492 31.7481 163.802 32.0423C164.405 32.6145 165.362 32.7686 166.098 32.4118L166.471 32.2306L166.475 31.7459C166.479 31.2023 166.577 31.0107 167.006 30.7002C167.208 30.554 167.292 30.5336 167.699 30.5336C168.11 30.5336 168.191 30.554 168.433 30.7154C169.061 31.1366 169.17 31.9388 168.671 32.4774C168.324 32.8532 167.856 32.9958 167.384 32.8703C167.122 32.8008 167.099 32.8061 166.765 33.0145C166.574 33.1336 166.383 33.2312 166.34 33.2312C166.162 33.2312 166.202 33.3659 166.457 33.6284C166.896 34.0808 167.395 34.2727 168.045 34.2402C168.28 34.2283 168.59 34.1656 168.756 34.096L168.756 34.0959ZM167.98 31.9582C168.143 31.8039 168.144 31.5832 167.982 31.4446C167.613 31.1278 167.103 31.5494 167.409 31.9183C167.569 32.1116 167.801 32.1278 167.98 31.9581L167.98 31.9582ZM165.602 29.3782C165.806 29.2423 165.798 28.9027 165.587 28.7717C165.191 28.5257 164.769 29.033 165.105 29.3513C165.258 29.4969 165.411 29.5052 165.602 29.3782L165.602 29.3782ZM182.093 24.6611C182.171 24.5062 182.167 24.4701 182.055 24.3276C181.894 24.1225 181.64 24.0912 181.467 24.2553C181.191 24.5175 181.382 24.8847 181.779 24.853C181.956 24.8372 182.025 24.7968 182.093 24.6613L182.093 24.6611ZM169.947 20.1212C169.93 16.2264 169.927 16.1611 169.793 15.8852C169.597 15.483 169.238 15.1336 168.821 14.9396C168.516 14.7973 168.38 14.7712 167.948 14.7726C167.3 14.7739 166.889 14.9368 166.478 15.3542C166.2 15.636 166.158 15.7713 166.347 15.7713C166.394 15.7713 166.601 15.8783 166.807 16.0089C167.167 16.2368 167.194 16.2439 167.469 16.1842C167.887 16.0938 168.264 16.2062 168.595 16.5203C169.087 16.9876 169.125 17.5811 168.698 18.1271C168.411 18.4937 167.717 18.6684 167.234 18.4958C166.976 18.4039 166.589 18.0267 166.505 17.7871C166.466 17.6748 166.444 17.4014 166.457 17.1799L166.479 16.7771L166.103 16.5941C165.359 16.2316 164.394 16.3849 163.798 16.9602C163.491 17.2564 163.269 17.7052 163.215 18.1378L163.174 18.4724L163.571 18.5502C163.79 18.593 164.126 18.6938 164.317 18.7742C164.65 18.9139 164.681 18.9165 165.017 18.8335C165.211 18.7857 165.46 18.7628 165.572 18.7826C166.555 18.9563 166.983 20.0699 166.331 20.7555C166.044 21.0578 165.786 21.167 165.36 21.167C164.591 21.167 163.991 20.5237 164.109 19.825L164.147 19.5995L163.811 19.4812C162.85 19.1418 161.945 19.3299 161.163 20.032C159.947 21.1229 159.992 22.9101 161.261 23.9104L161.473 24.0772H165.719H169.965L169.947 20.1212ZM165.602 20.2844C165.808 20.1477 165.798 19.8089 165.584 19.6763C165.38 19.5493 165.123 19.6068 165.031 19.8001C164.848 20.1802 165.248 20.5195 165.602 20.2845L165.602 20.2844ZM167.94 17.6462C168.144 17.4943 168.158 17.274 167.976 17.1014C167.805 16.9387 167.55 16.9685 167.392 17.1689C167.294 17.2943 167.284 17.3553 167.337 17.4888C167.393 17.6273 167.569 17.7521 167.732 17.768C167.754 17.7694 167.847 17.7153 167.94 17.6462L167.94 17.6462ZM181.025 30.431C180.65 30.3517 180.239 29.9628 180.126 29.579C180.035 29.2725 180.065 28.9996 180.22 28.7183L180.318 28.54L179.789 28.0362L179.261 27.5325H176.18H173.099L173 27.3978C172.864 27.214 172.875 27.011 173.028 26.8657C173.153 26.7476 173.241 26.7446 176.418 26.7446H179.679L180.352 27.4072L181.024 28.0697H181.379C182.08 28.0697 182.613 28.5842 182.613 29.2605C182.613 30.0553 181.863 30.6083 181.025 30.4312L181.025 30.431ZM181.626 29.5056C181.712 29.4238 181.783 29.3134 181.783 29.2603C181.783 29.1506 181.505 28.8662 181.398 28.8662C181.299 28.8662 181.058 28.9916 181.001 29.0723C180.854 29.281 181.071 29.6543 181.338 29.6543C181.41 29.6543 181.54 29.5874 181.626 29.5056L181.626 29.5056ZM173.176 22.2586C172.894 22.1492 172.815 21.7934 173.028 21.5913C173.153 21.4734 173.241 21.47 176.209 21.47H179.261L179.796 20.9606C180.324 20.4563 180.329 20.4492 180.257 20.2544C180.006 19.5711 180.51 18.773 181.27 18.6513C181.991 18.5358 182.736 19.151 182.74 19.8658C182.742 20.1872 182.515 20.5983 182.208 20.83C181.984 20.9995 181.919 21.016 181.457 21.0225L180.951 21.0285L180.321 21.6579L179.692 22.2874L176.504 22.2992C174.742 22.3052 173.254 22.2874 173.176 22.2573L173.176 22.2586ZM181.77 20.0847C181.906 19.9207 181.838 19.6373 181.639 19.5319C181.481 19.4487 181.446 19.4487 181.288 19.5321C181.097 19.6335 181.047 19.7612 181.108 19.9921C181.177 20.2539 181.583 20.3106 181.769 20.0846L181.77 20.0847ZM171.765 18.2838C171.659 18.2138 171.623 18.1287 171.623 17.9538C171.623 17.5245 171.592 17.5294 174.285 17.5294H176.663L177.472 16.4303L178.28 15.3313L178.165 15.088C178.024 14.7925 178.021 14.2906 178.159 14.0419C178.381 13.6386 178.877 13.3463 179.34 13.3463C179.667 13.3463 180.103 13.5664 180.342 13.8521C180.523 14.067 180.538 14.1216 180.538 14.5588C180.538 14.996 180.522 15.0505 180.342 15.2655C180.091 15.5647 179.668 15.7704 179.294 15.7742L179.004 15.7782L178.173 16.9311C177.717 17.5651 177.274 18.1503 177.19 18.2315L177.038 18.379H174.473C172.255 18.379 171.889 18.3671 171.766 18.2847L171.765 18.2838ZM179.616 14.7961C179.858 14.5657 179.653 14.1951 179.282 14.1951C179.1 14.1951 178.907 14.3818 178.907 14.5588C178.907 14.8871 179.36 15.0387 179.616 14.7961Z" fill="black" stroke="#FAF8F4" stroke-width="0.118635"/>
<path d="M15.168 40.336C12.704 40.336 10.496 39.936 8.544 39.136C6.592 38.336 5.024 37.152 3.84 35.584C2.688 34.016 2.08 32.128 2.016 29.92H10.752C10.88 31.168 11.312 32.128 12.048 32.8C12.784 33.44 13.744 33.76 14.928 33.76C16.144 33.76 17.104 33.488 17.808 32.944C18.512 32.368 18.864 31.584 18.864 30.592C18.864 29.76 18.576 29.072 18 28.528C17.456 27.984 16.768 27.536 15.936 27.184C15.136 26.832 13.984 26.432 12.48 25.984C10.304 25.312 8.528 24.64 7.152 23.968C5.776 23.296 4.592 22.304 3.6 20.992C2.608 19.68 2.112 17.968 2.112 15.856C2.112 12.72 3.248 10.272 5.52 8.512C7.792 6.72 10.752 5.824 14.4 5.824C18.112 5.824 21.104 6.72 23.376 8.512C25.648 10.272 26.864 12.736 27.024 15.904H18.144C18.08 14.816 17.68 13.968 16.944 13.36C16.208 12.72 15.264 12.4 14.112 12.4C13.12 12.4 12.32 12.672 11.712 13.216C11.104 13.728 10.8 14.48 10.8 15.472C10.8 16.56 11.312 17.408 12.336 18.016C13.36 18.624 14.96 19.28 17.136 19.984C19.312 20.72 21.072 21.424 22.416 22.096C23.792 22.768 24.976 23.744 25.968 25.024C26.96 26.304 27.456 27.952 27.456 29.968C27.456 31.888 26.96 33.632 25.968 35.2C25.008 36.768 23.6 38.016 21.744 38.944C19.888 39.872 17.696 40.336 15.168 40.336ZM66.6833 12.928C70.0113 12.928 72.6513 13.936 74.6033 15.952C76.5873 17.968 77.5793 20.768 77.5793 24.352V40H69.4193V25.456C69.4193 23.728 68.9553 22.4 68.0273 21.472C67.1313 20.512 65.8833 20.032 64.2833 20.032C62.6833 20.032 61.4193 20.512 60.4913 21.472C59.5953 22.4 59.1473 23.728 59.1473 25.456V40H50.9873V25.456C50.9873 23.728 50.5233 22.4 49.5953 21.472C48.6993 20.512 47.4513 20.032 45.8513 20.032C44.2513 20.032 42.9873 20.512 42.0593 21.472C41.1633 22.4 40.7153 23.728 40.7153 25.456V40H32.5073V13.216H40.7153V16.576C41.5473 15.456 42.6353 14.576 43.9793 13.936C45.3233 13.264 46.8433 12.928 48.5393 12.928C50.5553 12.928 52.3473 13.36 53.9153 14.224C55.5153 15.088 56.7633 16.32 57.6593 17.92C58.5873 16.448 59.8513 15.248 61.4513 14.32C63.0513 13.392 64.7953 12.928 66.6833 12.928ZM81.6878 26.56C81.6878 23.808 82.1998 21.392 83.2238 19.312C84.2798 17.232 85.7038 15.632 87.4958 14.512C89.2878 13.392 91.2878 12.832 93.4958 12.832C95.3838 12.832 97.0318 13.216 98.4398 13.984C99.8798 14.752 100.984 15.76 101.752 17.008V13.216H109.96V40H101.752V36.208C100.952 37.456 99.8318 38.464 98.3918 39.232C96.9838 40 95.3358 40.384 93.4478 40.384C91.2718 40.384 89.2878 39.824 87.4958 38.704C85.7038 37.552 84.2798 35.936 83.2238 33.856C82.1998 31.744 81.6878 29.312 81.6878 26.56ZM101.752 26.608C101.752 24.56 101.176 22.944 100.024 21.76C98.9038 20.576 97.5278 19.984 95.8958 19.984C94.2638 19.984 92.8718 20.576 91.7198 21.76C90.5998 22.912 90.0398 24.512 90.0398 26.56C90.0398 28.608 90.5998 30.24 91.7198 31.456C92.8718 32.64 94.2638 33.232 95.8958 33.232C97.5278 33.232 98.9038 32.64 100.024 31.456C101.176 30.272 101.752 28.656 101.752 26.608ZM124.106 17.68C125.066 16.208 126.266 15.056 127.706 14.224C129.146 13.36 130.746 12.928 132.506 12.928V21.616H130.25C128.202 21.616 126.666 22.064 125.642 22.96C124.618 23.824 124.106 25.36 124.106 27.568V40H115.898V13.216H124.106V17.68ZM151.357 33.04V40H147.181C144.205 40 141.885 39.28 140.221 37.84C138.557 36.368 137.725 33.984 137.725 30.688V20.032H134.461V13.216H137.725V6.688H145.933V13.216H151.309V20.032H145.933V30.784C145.933 31.584 146.125 32.16 146.509 32.512C146.893 32.864 147.533 33.04 148.429 33.04H151.357ZM208.381 6.304V12.88H194.653V19.984H204.925V26.368H194.653V40H186.445V6.304H208.381ZM220.903 4.48V40H212.695V4.48H220.903ZM252.099 26.176C252.099 26.944 252.051 27.744 251.955 28.576H233.379C233.507 30.24 234.035 31.52 234.963 32.416C235.923 33.28 237.091 33.712 238.467 33.712C240.515 33.712 241.939 32.848 242.739 31.12H251.475C251.027 32.88 250.211 34.464 249.027 35.872C247.875 37.28 246.419 38.384 244.659 39.184C242.899 39.984 240.931 40.384 238.755 40.384C236.131 40.384 233.795 39.824 231.747 38.704C229.699 37.584 228.099 35.984 226.947 33.904C225.795 31.824 225.219 29.392 225.219 26.608C225.219 23.824 225.779 21.392 226.899 19.312C228.051 17.232 229.651 15.632 231.699 14.512C233.747 13.392 236.099 12.832 238.755 12.832C241.347 12.832 243.651 13.376 245.667 14.464C247.683 15.552 249.251 17.104 250.371 19.12C251.523 21.136 252.099 23.488 252.099 26.176ZM243.699 24.016C243.699 22.608 243.219 21.488 242.259 20.656C241.299 19.824 240.099 19.408 238.659 19.408C237.283 19.408 236.115 19.808 235.155 20.608C234.227 21.408 233.651 22.544 233.427 24.016H243.699ZM281.677 26.176C281.677 26.944 281.629 27.744 281.533 28.576H262.957C263.085 30.24 263.613 31.52 264.541 32.416C265.501 33.28 266.669 33.712 268.045 33.712C270.093 33.712 271.517 32.848 272.317 31.12H281.053C280.605 32.88 279.789 34.464 278.605 35.872C277.453 37.28 275.997 38.384 274.237 39.184C272.477 39.984 270.509 40.384 268.333 40.384C265.709 40.384 263.373 39.824 261.325 38.704C259.277 37.584 257.677 35.984 256.525 33.904C255.373 31.824 254.797 29.392 254.797 26.608C254.797 23.824 255.357 21.392 256.477 19.312C257.629 17.232 259.229 15.632 261.277 14.512C263.325 13.392 265.677 12.832 268.333 12.832C270.925 12.832 273.229 13.376 275.245 14.464C277.261 15.552 278.829 17.104 279.949 19.12C281.101 21.136 281.677 23.488 281.677 26.176ZM273.277 24.016C273.277 22.608 272.797 21.488 271.837 20.656C270.877 19.824 269.677 19.408 268.237 19.408C266.861 19.408 265.693 19.808 264.733 20.608C263.805 21.408 263.229 22.544 263.005 24.016H273.277ZM300.935 33.04V40H296.759C293.783 40 291.463 39.28 289.799 37.84C288.135 36.368 287.303 33.984 287.303 30.688V20.032H284.039V13.216H287.303V6.688H295.511V13.216H300.887V20.032H295.511V30.784C295.511 31.584 295.703 32.16 296.087 32.512C296.471 32.864 297.111 33.04 298.007 33.04H300.935ZM316.403 40.384C314.067 40.384 311.987 39.984 310.163 39.184C308.339 38.384 306.899 37.296 305.843 35.92C304.787 34.512 304.195 32.944 304.067 31.216H312.179C312.275 32.144 312.707 32.896 313.475 33.472C314.243 34.048 315.187 34.336 316.307 34.336C317.331 34.336 318.115 34.144 318.659 33.76C319.235 33.344 319.523 32.816 319.523 32.176C319.523 31.408 319.123 30.848 318.323 30.496C317.523 30.112 316.227 29.696 314.435 29.248C312.515 28.8 310.915 28.336 309.635 27.856C308.355 27.344 307.251 26.56 306.323 25.504C305.395 24.416 304.931 22.96 304.931 21.136C304.931 19.6 305.347 18.208 306.179 16.96C307.043 15.68 308.291 14.672 309.923 13.936C311.587 13.2 313.555 12.832 315.827 12.832C319.187 12.832 321.827 13.664 323.747 15.328C325.699 16.992 326.819 19.2 327.107 21.952H319.523C319.395 21.024 318.979 20.288 318.275 19.744C317.603 19.2 316.707 18.928 315.587 18.928C314.627 18.928 313.891 19.12 313.379 19.504C312.867 19.856 312.611 20.352 312.611 20.992C312.611 21.76 313.011 22.336 313.811 22.72C314.643 23.104 315.923 23.488 317.651 23.872C319.635 24.384 321.251 24.896 322.499 25.408C323.747 25.888 324.835 26.688 325.763 27.808C326.723 28.896 327.219 30.368 327.251 32.224C327.251 33.792 326.803 35.2 325.907 36.448C325.043 37.664 323.779 38.624 322.115 39.328C320.483 40.032 318.579 40.384 316.403 40.384Z" fill="black"/>
</svg>
